<svg xmlns="http://www.w3.org/2000/svg" xmlns:xlink="http://www.w3.org/1999/xlink" width="119.934" height="119.935" viewBox="0 0 119.934 119.935">
  <defs>
    <style>
      .cls-1 {
        fill: #fdfdfd;
      }

      .cls-2 {
        fill: none;
      }

      .cls-3, .cls-5 {
        fill: #fff;
      }

      .cls-4 {
        fill: url(#linear-gradient);
      }

      .cls-5 {
        stroke: #fff;
        stroke-width: 0.8px;
        font-size: 14px;
        font-family: Quicksand-Medium, Quicksand;
        font-weight: 500;
        letter-spacing: 0.1em;
      }

      .cls-6 {
        filter: url(#EasyMed);
      }

      .cls-7 {
        filter: url(#Ellipse_1375);
      }

      .cls-8 {
        filter: url(#Ellipse_1374);
      }
    </style>
    <filter id="Ellipse_1374" x="5.225" y="5.225" width="114.709" height="114.709" filterUnits="userSpaceOnUse">
      <feOffset dx="2.322" dy="2.322" input="SourceAlpha"/>
      <feGaussianBlur stdDeviation="1.452" result="blur"/>
      <feFlood flood-color="#858585" flood-opacity="0.749"/>
      <feComposite operator="in" in2="blur"/>
      <feComposite in="SourceGraphic"/>
    </filter>
    <filter id="Ellipse_1375" x="0" y="0" width="114.709" height="114.709" filterUnits="userSpaceOnUse">
      <feOffset dx="-2.903" dy="-2.903" input="SourceAlpha"/>
      <feGaussianBlur stdDeviation="1.452" result="blur-2"/>
      <feFlood flood-color="#fff" flood-opacity="0.749"/>
      <feComposite operator="in" in2="blur-2"/>
      <feComposite in="SourceGraphic"/>
    </filter>
    <filter id="EasyMed" x="11.258" y="13.258" width="99" height="99" filterUnits="userSpaceOnUse">
      <feOffset dy="3" input="SourceAlpha"/>
      <feGaussianBlur stdDeviation="3" result="blur-3"/>
      <feFlood flood-opacity="0.161"/>
      <feComposite operator="in" in2="blur-3"/>
      <feComposite in="SourceGraphic"/>
    </filter>
    <linearGradient id="linear-gradient" x1="0.5" x2="0.5" y2="1" gradientUnits="objectBoundingBox">
      <stop offset="0" stop-color="#3bb859"/>
      <stop offset="1" stop-color="#216a33"/>
    </linearGradient>
  </defs>
  <g id="Group_9392" data-name="Group 9392" transform="translate(-1108.743 -3099.742)">
    <g id="Group_3415" data-name="Group 3415" transform="translate(970 -3639)">
      <g id="Group_3407" data-name="Group 3407" transform="translate(-532.583 6323.417)">
        <g id="Group_3406" data-name="Group 3406" transform="translate(678.582 422.582)">
          <g class="cls-8" transform="matrix(1, 0, 0, 1, -7.26, -7.26)">
            <circle id="Ellipse_1374-2" data-name="Ellipse 1374" class="cls-1" cx="45.234" cy="45.234" r="45.234" transform="translate(7.26 96.08) rotate(-79.05)"/>
          </g>
          <g class="cls-7" transform="matrix(1, 0, 0, 1, -7.26, -7.26)">
            <circle id="Ellipse_1375-2" data-name="Ellipse 1375" class="cls-1" cx="45.234" cy="45.234" r="45.234" transform="translate(7.26 96.08) rotate(-79.05)"/>
          </g>
        </g>
        <circle id="Ellipse_1376" data-name="Ellipse 1376" class="cls-2" cx="45.234" cy="45.234" r="45.234" transform="translate(678.582 511.404) rotate(-79.054)"/>
      </g>
      <g class="cls-6" transform="matrix(1, 0, 0, 1, 138.74, 6738.74)">
        <circle id="EasyMed-2" data-name="EasyMed" class="cls-3" cx="40.5" cy="40.5" r="40.5" transform="translate(20.26 19.26)"/>
      </g>
      <circle id="EasyMed-3" data-name="EasyMed" class="cls-4" cx="37.5" cy="37.5" r="37.5" transform="translate(162 6761)"/>
    </g>
    <g id="Group_9305" data-name="Group 9305" transform="translate(-2889.213 -37.433)">
      <text id="EMI" class="cls-5" transform="translate(4057.713 3204.315)"><tspan x="-12.971" y="0">EMI</tspan></text>
      <g id="Group_9304" data-name="Group 9304" transform="translate(4032.213 3172)">
        <g id="Group_9303" data-name="Group 9303" transform="translate(0 0)">
          <path id="Path_34544" data-name="Path 34544" class="cls-3" d="M61.562,31.741l-2.009-4.11a1.579,1.579,0,0,1,0-1.4l2.009-4.11a4.676,4.676,0,0,0-2.018-6.21L55.5,13.772a1.579,1.579,0,0,1-.82-1.129l-.79-4.506A4.677,4.677,0,0,0,48.611,4.3l-4.53.641a1.577,1.577,0,0,1-1.327-.431L39.467,1.329a4.676,4.676,0,0,0-6.529,0L29.649,4.509a1.579,1.579,0,0,1-1.327.431L23.793,4.3a4.677,4.677,0,0,0-5.282,3.838l-.79,4.506a1.578,1.578,0,0,1-.82,1.129l-4.041,2.144a4.676,4.676,0,0,0-2.018,6.21l2.009,4.11a1.579,1.579,0,0,1,0,1.4l-2.009,4.11a4.676,4.676,0,0,0,2.018,6.21L16.9,40.095a1.579,1.579,0,0,1,.82,1.129l.79,4.506a4.677,4.677,0,0,0,5.282,3.838l4.53-.641a1.578,1.578,0,0,1,1.327.431l3.288,3.181a4.676,4.676,0,0,0,6.529,0l3.288-3.181a1.578,1.578,0,0,1,1.327-.431l4.53.641a4.806,4.806,0,0,0,.673.048,4.674,4.674,0,0,0,4.61-3.885l.79-4.506A1.578,1.578,0,0,1,55.5,40.1l4.041-2.144A4.676,4.676,0,0,0,61.562,31.741ZM56.762,29l2.009,4.11a1.582,1.582,0,0,1-.683,2.1L54.047,37.35a4.666,4.666,0,0,0-2.424,3.336l-.79,4.506a1.583,1.583,0,0,1-1.787,1.3l-4.53-.641a4.665,4.665,0,0,0-3.922,1.274l-3.288,3.181a1.582,1.582,0,0,1-2.209,0l-3.288-3.181A4.661,4.661,0,0,0,28.555,45.8a4.782,4.782,0,0,0-.668.047l-4.53.641a1.582,1.582,0,0,1-1.787-1.3l-.79-4.506a4.666,4.666,0,0,0-2.424-3.336l-4.041-2.144a1.582,1.582,0,0,1-.683-2.1L15.641,29a4.666,4.666,0,0,0,0-4.124h0l-2.009-4.11a1.582,1.582,0,0,1,.683-2.1l4.041-2.144A4.666,4.666,0,0,0,20.78,13.18l.79-4.506a1.582,1.582,0,0,1,1.787-1.3l4.53.641a4.666,4.666,0,0,0,3.922-1.274L35.1,3.562a1.582,1.582,0,0,1,2.209,0l3.288,3.181a4.667,4.667,0,0,0,3.922,1.274l4.53-.641a1.582,1.582,0,0,1,1.787,1.3l.79,4.506a4.666,4.666,0,0,0,2.424,3.336l4.041,2.144a1.582,1.582,0,0,1,.683,2.1l-2.009,4.11A4.665,4.665,0,0,0,56.762,29Z" transform="translate(-10.358 0)"/>
        </g>
      </g>
    </g>
  </g>
</svg>
