<svg xmlns="http://www.w3.org/2000/svg" xmlns:xlink="http://www.w3.org/1999/xlink" width="119.934" height="119.934" viewBox="0 0 119.934 119.934">
  <defs>
    <style>
      .cls-1 {
        fill: #fdfdfd;
      }

      .cls-2 {
        fill: #fff;
      }

      .cls-3 {
        fill: url(#linear-gradient);
      }

      .cls-4 {
        isolation: isolate;
      }

      .cls-5 {
        filter: url(#EasyMed);
      }

      .cls-6 {
        filter: url(#Ellipse_1375);
      }

      .cls-7 {
        filter: url(#Ellipse_1374);
      }
    </style>
    <filter id="Ellipse_1374" x="5.225" y="5.225" width="114.709" height="114.709" filterUnits="userSpaceOnUse">
      <feOffset dx="2.322" dy="2.322" input="SourceAlpha"/>
      <feGaussianBlur stdDeviation="1.452" result="blur"/>
      <feFlood flood-color="#858585" flood-opacity="0.749"/>
      <feComposite operator="in" in2="blur"/>
      <feComposite in="SourceGraphic"/>
    </filter>
    <filter id="Ellipse_1375" x="0" y="0" width="114.709" height="114.709" filterUnits="userSpaceOnUse">
      <feOffset dx="-2.903" dy="-2.903" input="SourceAlpha"/>
      <feGaussianBlur stdDeviation="1.452" result="blur-2"/>
      <feFlood flood-color="#fff" flood-opacity="0.749"/>
      <feComposite operator="in" in2="blur-2"/>
      <feComposite in="SourceGraphic"/>
    </filter>
    <filter id="EasyMed" x="10.258" y="13.257" width="99" height="99" filterUnits="userSpaceOnUse">
      <feOffset dy="3" input="SourceAlpha"/>
      <feGaussianBlur stdDeviation="3" result="blur-3"/>
      <feFlood flood-opacity="0.161"/>
      <feComposite operator="in" in2="blur-3"/>
      <feComposite in="SourceGraphic"/>
    </filter>
    <linearGradient id="linear-gradient" x1="0.5" x2="0.5" y2="1" gradientUnits="objectBoundingBox">
      <stop offset="0" stop-color="#3bb859"/>
      <stop offset="1" stop-color="#216a33"/>
    </linearGradient>
  </defs>
  <g id="Group_8884" data-name="Group 8884" transform="translate(-2523.742 -4943.743)">
    <g id="Group_3406" data-name="Group 3406" transform="translate(2531 4951)">
      <g class="cls-7" transform="matrix(1, 0, 0, 1, -7.26, -7.26)">
        <ellipse id="Ellipse_1374-2" data-name="Ellipse 1374" class="cls-1" cx="45.234" cy="45.234" rx="45.234" ry="45.234" transform="matrix(-0.19, -0.98, 0.98, -0.19, 24.44, 113.26)"/>
      </g>
      <g class="cls-6" transform="matrix(1, 0, 0, 1, -7.26, -7.26)">
        <ellipse id="Ellipse_1375-2" data-name="Ellipse 1375" class="cls-1" cx="45.234" cy="45.234" rx="45.234" ry="45.234" transform="matrix(-0.19, -0.98, 0.98, -0.19, 24.44, 113.26)"/>
      </g>
    </g>
    <g class="cls-5" transform="matrix(1, 0, 0, 1, 2523.74, 4943.74)">
      <ellipse id="EasyMed-2" data-name="EasyMed" class="cls-2" cx="40.5" cy="40.5" rx="40.5" ry="40.5" transform="translate(19.26 19.26)"/>
    </g>
    <ellipse id="EasyMed-3" data-name="EasyMed" class="cls-3" cx="37.5" cy="37.5" rx="37.5" ry="37.5" transform="translate(2546 4966)"/>
    <g id="screen" class="cls-4" transform="translate(2560 4978.968)">
      <path id="Path_27091" data-name="Path 27091" class="cls-2" d="M44.5,38H3.5A3.5,3.5,0,0,1,0,34.5V7.5A3.5,3.5,0,0,1,3.5,4h3a1.5,1.5,0,0,1,0,3h-3a.505.505,0,0,0-.5.5v27a.505.505,0,0,0,.5.5h41a.505.505,0,0,0,.5-.5V7.5a.505.505,0,0,0-.5-.5h-7a1.5,1.5,0,0,1,0-3h7A3.5,3.5,0,0,1,48,7.5v27A3.5,3.5,0,0,1,44.5,38Z" transform="translate(0 3.968)"/>
      <path id="Path_27092" data-name="Path 27092" class="cls-2" d="M46.5,19H1.5a1.5,1.5,0,0,1,0-3h45a1.5,1.5,0,0,1,0,3Z" transform="translate(0 15.968)"/>
      <path id="Path_27093" data-name="Path 27093" class="cls-2" d="M22.5,28.5H9.5a1.5,1.5,0,0,1-1.06-2.56,10.183,10.183,0,0,0,2.534-5.134,1.5,1.5,0,0,1,2.974.39,13.45,13.45,0,0,1-1.488,4.3h7.046a13.759,13.759,0,0,1-1.492-4.294,1.5,1.5,0,0,1,2.972-.414,10.413,10.413,0,0,0,2.368,4.974A1.5,1.5,0,0,1,22.5,28.5Z" transform="translate(8 19.467)"/>
      <path id="Path_27094" data-name="Path 27094" class="cls-2" d="M17.984,18.766a6.244,6.244,0,0,1-4.434-1.85l-6.214-6.25A6.262,6.262,0,0,1,7.344,1.8a6.413,6.413,0,0,1,8.844.006l1.068,1.07a1.5,1.5,0,1,1-2.124,2.118l-1.068-1.07a3.33,3.33,0,0,0-4.592-.01,3.262,3.262,0,0,0-.014,4.632L15.676,14.8a3.238,3.238,0,0,0,4.368.22,1.5,1.5,0,0,1,1.9,2.32,6.231,6.231,0,0,1-3.964,1.424Z" transform="translate(5.5)"/>
      <path id="Path_27095" data-name="Path 27095" class="cls-2" d="M20.734,22.371a6.171,6.171,0,0,1-4.43-1.852L15.28,19.491a1.5,1.5,0,1,1,2.126-2.118l1.03,1.034a3.3,3.3,0,0,0,4.6.006,3.264,3.264,0,0,0,.008-4.628L16.822,7.527a3.247,3.247,0,0,0-2.31-.952A3.182,3.182,0,0,0,12.46,7.3a1.5,1.5,0,0,1-1.916-2.306,6.436,6.436,0,0,1,8.4.418l6.214,6.254a6.277,6.277,0,0,1-4.428,10.706Z" transform="translate(10.002 3.597)"/>
    </g>
  </g>
</svg>
