<svg xmlns="http://www.w3.org/2000/svg" xmlns:xlink="http://www.w3.org/1999/xlink" width="119.934" height="119.934" viewBox="0 0 119.934 119.934">
  <defs>
    <style>
      .cls-1 {
        fill: #fdfdfd;
      }

      .cls-2 {
        fill: none;
      }

      .cls-3 {
        fill: #fff;
      }

      .cls-4 {
        fill: url(#linear-gradient);
      }

      .cls-5 {
        isolation: isolate;
      }

      .cls-6 {
        filter: url(#EasyMed);
      }

      .cls-7 {
        filter: url(#Ellipse_1375);
      }

      .cls-8 {
        filter: url(#Ellipse_1374);
      }
    </style>
    <filter id="Ellipse_1374" x="5.225" y="5.225" width="114.709" height="114.709" filterUnits="userSpaceOnUse">
      <feOffset dx="2.322" dy="2.322" input="SourceAlpha"/>
      <feGaussianBlur stdDeviation="1.452" result="blur"/>
      <feFlood flood-color="#858585" flood-opacity="0.749"/>
      <feComposite operator="in" in2="blur"/>
      <feComposite in="SourceGraphic"/>
    </filter>
    <filter id="Ellipse_1375" x="0" y="0" width="114.709" height="114.709" filterUnits="userSpaceOnUse">
      <feOffset dx="-2.903" dy="-2.903" input="SourceAlpha"/>
      <feGaussianBlur stdDeviation="1.452" result="blur-2"/>
      <feFlood flood-color="#fff" flood-opacity="0.749"/>
      <feComposite operator="in" in2="blur-2"/>
      <feComposite in="SourceGraphic"/>
    </filter>
    <filter id="EasyMed" x="10.258" y="13.257" width="99" height="99" filterUnits="userSpaceOnUse">
      <feOffset dy="3" input="SourceAlpha"/>
      <feGaussianBlur stdDeviation="3" result="blur-3"/>
      <feFlood flood-opacity="0.161"/>
      <feComposite operator="in" in2="blur-3"/>
      <feComposite in="SourceGraphic"/>
    </filter>
    <linearGradient id="linear-gradient" x1="0.5" x2="0.5" y2="1" gradientUnits="objectBoundingBox">
      <stop offset="0" stop-color="#3bb859"/>
      <stop offset="1" stop-color="#216a33"/>
    </linearGradient>
  </defs>
  <g id="Group_8880" data-name="Group 8880" transform="translate(-92.742 -4735.743)">
    <g id="Group_3756" data-name="Group 3756" transform="translate(100 4743)">
      <g id="Group_3406" data-name="Group 3406" transform="translate(0 0)">
        <g class="cls-8" transform="matrix(1, 0, 0, 1, -7.26, -7.26)">
          <ellipse id="Ellipse_1374-2" data-name="Ellipse 1374" class="cls-1" cx="45.234" cy="45.234" rx="45.234" ry="45.234" transform="matrix(-0.19, -0.98, 0.98, -0.19, 24.44, 113.26)"/>
        </g>
        <g class="cls-7" transform="matrix(1, 0, 0, 1, -7.26, -7.26)">
          <ellipse id="Ellipse_1375-2" data-name="Ellipse 1375" class="cls-1" cx="45.234" cy="45.234" rx="45.234" ry="45.234" transform="matrix(-0.19, -0.98, 0.98, -0.19, 24.44, 113.26)"/>
        </g>
      </g>
      <ellipse id="Ellipse_1376" data-name="Ellipse 1376" class="cls-2" cx="45.234" cy="45.234" rx="45.234" ry="45.234" transform="matrix(-0.19, -0.982, 0.982, -0.19, 17.178, 106)"/>
    </g>
    <g class="cls-6" transform="matrix(1, 0, 0, 1, 92.74, 4735.74)">
      <ellipse id="EasyMed-2" data-name="EasyMed" class="cls-3" cx="40.5" cy="40.5" rx="40.5" ry="40.5" transform="translate(19.26 19.26)"/>
    </g>
    <ellipse id="EasyMed-3" data-name="EasyMed" class="cls-4" cx="37.5" cy="37.5" rx="37.5" ry="37.5" transform="translate(115 4758)"/>
    <g id="idea" class="cls-5" transform="translate(128.987 4771.966)">
      <g id="Group_3741" data-name="Group 3741" transform="translate(22.603 5.637)">
        <g id="Group_3740" data-name="Group 3740">
          <path id="Path_27083" data-name="Path 27083" class="cls-3" d="M242.392,59.99a1.407,1.407,0,0,0,0,2.814,8.452,8.452,0,0,1,8.443,8.441,1.407,1.407,0,0,0,2.814,0A11.269,11.269,0,0,0,242.392,59.99Z" transform="translate(-240.985 -59.99)"/>
        </g>
      </g>
      <g id="Group_3743" data-name="Group 3743" transform="translate(7.129 0.012)">
        <g id="Group_3742" data-name="Group 3742" transform="translate(0 0)">
          <path id="Path_27084" data-name="Path 27084" class="cls-3" d="M89.265.389a16.873,16.873,0,0,0-8.995,27.7,10.96,10.96,0,0,1,2.773,7.182V38.09A4.227,4.227,0,0,0,85.96,42.1a7.017,7.017,0,0,0,13.864,0,4.227,4.227,0,0,0,2.916-4.014V35.276A11.106,11.106,0,0,1,105.6,28,16.885,16.885,0,0,0,89.265.389Zm3.627,44.829a4.305,4.305,0,0,1-3.98-2.917h7.959A4.305,4.305,0,0,1,92.892,45.218Zm7.035-7.128A1.409,1.409,0,0,1,98.519,39.5H87.264a1.409,1.409,0,0,1-1.407-1.407V36.683H99.926Zm3.553-11.944A14.108,14.108,0,0,0,100,33.869H85.78a13.9,13.9,0,0,0-3.407-7.646,14.069,14.069,0,1,1,21.106-.078Z" transform="translate(-76.01 -0.012)"/>
        </g>
      </g>
      <g id="Group_3745" data-name="Group 3745" transform="translate(0 16.893)">
        <g id="Group_3744" data-name="Group 3744">
          <path id="Path_27085" data-name="Path 27085" class="cls-3" d="M4.221,179.99H1.407a1.407,1.407,0,0,0,0,2.814H4.221a1.407,1.407,0,1,0,0-2.814Z" transform="translate(0 -179.99)"/>
        </g>
      </g>
      <g id="Group_3747" data-name="Group 3747" transform="translate(0.412 7.456)">
        <g id="Group_3746" data-name="Group 3746">
          <path id="Path_27086" data-name="Path 27086" class="cls-3" d="M8.785,81.785,6.8,79.8a1.407,1.407,0,0,0-1.99,1.99l1.99,1.99a1.407,1.407,0,0,0,1.99-1.99Z" transform="translate(-4.394 -79.383)"/>
        </g>
      </g>
      <g id="Group_3749" data-name="Group 3749" transform="translate(0.412 24.339)">
        <g id="Group_3748" data-name="Group 3748">
          <path id="Path_27087" data-name="Path 27087" class="cls-3" d="M8.785,259.8a1.407,1.407,0,0,0-1.99,0l-1.99,1.99a1.407,1.407,0,0,0,1.99,1.99l1.99-1.99A1.407,1.407,0,0,0,8.785,259.8Z" transform="translate(-4.393 -259.384)"/>
        </g>
      </g>
      <g id="Group_3751" data-name="Group 3751" transform="translate(42.395 16.893)">
        <g id="Group_3750" data-name="Group 3750">
          <path id="Path_27088" data-name="Path 27088" class="cls-3" d="M456.221,179.99h-2.814a1.407,1.407,0,1,0,0,2.814h2.814a1.407,1.407,0,0,0,0-2.814Z" transform="translate(-452 -179.99)"/>
        </g>
      </g>
      <g id="Group_3753" data-name="Group 3753" transform="translate(42.807 7.456)">
        <g id="Group_3752" data-name="Group 3752">
          <path id="Path_27089" data-name="Path 27089" class="cls-3" d="M460.785,79.8a1.407,1.407,0,0,0-1.99,0l-1.99,1.99a1.407,1.407,0,0,0,1.99,1.99l1.99-1.99A1.407,1.407,0,0,0,460.785,79.8Z" transform="translate(-456.393 -79.383)"/>
        </g>
      </g>
      <g id="Group_3755" data-name="Group 3755" transform="translate(42.807 24.339)">
        <g id="Group_3754" data-name="Group 3754">
          <path id="Path_27090" data-name="Path 27090" class="cls-3" d="M460.785,261.785l-1.99-1.99a1.407,1.407,0,1,0-1.99,1.99l1.99,1.99a1.407,1.407,0,0,0,1.99-1.99Z" transform="translate(-456.393 -259.384)"/>
        </g>
      </g>
    </g>
  </g>
</svg>
