<svg xmlns="http://www.w3.org/2000/svg" xmlns:xlink="http://www.w3.org/1999/xlink" width="559" height="652" viewBox="0 0 559 652">
  <defs>
    <filter id="Path_34541" x="0" y="0" width="559" height="652" filterUnits="userSpaceOnUse">
      <feOffset dy="2" input="SourceAlpha"/>
      <feGaussianBlur stdDeviation="6.5" result="blur"/>
      <feFlood flood-opacity="0.122"/>
      <feComposite operator="in" in2="blur"/>
      <feComposite in="SourceGraphic"/>
    </filter>
    <clipPath id="clip-path">
      <path id="Polygon_20" data-name="Polygon 20" d="M114.857,0l38.286,66.544-38.286,66.544H38.286L0,66.544,38.286,0Z" transform="translate(0)" fill="#7c7c7c" opacity="0.08"/>
    </clipPath>
  </defs>
  <g id="Group_9375" data-name="Group 9375" transform="translate(-4242.5 -6760.5)">
    <g transform="matrix(1, 0, 0, 1, 4242.5, 6760.5)" filter="url(#Path_34541)">
      <path id="Path_34541-2" data-name="Path 34541" d="M20,0H500a20,20,0,0,1,20,20V533a20,20,0,0,1-20,20H181.576L98.717,613H20A20,20,0,0,1,0,593V20A20,20,0,0,1,20,0Z" transform="translate(19.5 17.5)" fill="#f6f7f6"/>
    </g>
    <g id="Group_9297" data-name="Group 9297" transform="translate(3092.357 1078.289)">
      <path id="Polygon_16" data-name="Polygon 16" d="M109.074,0a10,10,0,0,1,8.668,5.013l32.532,56.544a10,10,0,0,1,0,9.974l-32.532,56.544a10,10,0,0,1-8.668,5.013h-65a10,10,0,0,1-8.668-5.013L2.869,71.531a10,10,0,0,1,0-9.974L35.4,5.013A10,10,0,0,1,44.069,0Z" transform="translate(1493.5 6188.588)" fill="#33a04d"/>
      <g id="Mask_Group_13" data-name="Mask Group 13" transform="translate(1493.5 6188.587)" clip-path="url(#clip-path)">
        <g id="regular" transform="translate(37.374 30.993)">
          <path id="Path_25320" data-name="Path 25320" d="M123.781,0A32.989,32.989,0,0,0,91,32.98c0,18.373,6.018,30.622,6.275,31.134a2.981,2.981,0,0,0,2.666,1.647h47.682a2.981,2.981,0,0,0,2.666-1.647c.256-.512,6.274-12.761,6.274-31.134A32.989,32.989,0,0,0,123.781,0Z" transform="translate(-85.04 0)" fill="#474f54"/>
          <path id="Path_25321" data-name="Path 25321" d="M282.507,64.114c.256-.512,6.275-12.761,6.275-31.134A32.989,32.989,0,0,0,256,0V65.761h23.841a2.981,2.981,0,0,0,2.666-1.647Z" transform="translate(-217.258 0)" fill="#32393f"/>
          <path id="Path_25322" data-name="Path 25322" d="M136.489,428.158h-73.5A40.541,40.541,0,0,0,61,441.835a2.978,2.978,0,0,0,2.98,2.98H135.5a2.978,2.978,0,0,0,2.98-2.98A40.541,40.541,0,0,0,136.489,428.158Z" transform="translate(-61 -343.094)" fill="#474f54"/>
          <path id="Path_25323" data-name="Path 25323" d="M294.741,441.835a40.541,40.541,0,0,0-1.993-13.677H256v16.657h35.761A2.978,2.978,0,0,0,294.741,441.835Z" transform="translate(-217.258 -343.094)" fill="#32393f"/>
          <path id="Path_25324" data-name="Path 25324" d="M141.651,401.1H73.915a19.66,19.66,0,0,0-2.88,5.375,145.8,145.8,0,0,0,73.5,0A19.666,19.666,0,0,0,141.651,401.1Z" transform="translate(-69.041 -321.415)" fill="#f2f2fc"/>
          <path id="Path_25325" data-name="Path 25325" d="M289.868,401.1H256v10.082a148.308,148.308,0,0,0,36.748-4.707A19.666,19.666,0,0,0,289.868,401.1Z" transform="translate(-217.258 -321.415)" fill="#e2d9fb"/>
          <path id="Path_25326" data-name="Path 25326" d="M140.343,308.8c-5.986-1.787-10.311-3.079-11.676-11.149a2.98,2.98,0,0,0-2.939-2.482h-12.66a2.98,2.98,0,0,0-2.939,2.482c-1.365,8.07-5.69,9.362-11.676,11.149-4.381,1.309-9.349,2.81-12.923,7.415a141.251,141.251,0,0,0,67.736,0c-3.573-4.6-8.541-6.105-12.922-7.415Z" transform="translate(-80.657 -236.527)" fill="#ffccb3"/>
          <path id="Path_25327" data-name="Path 25327" d="M276.945,308.8c-5.986-1.787-10.311-3.079-11.676-11.149a2.98,2.98,0,0,0-2.939-2.482H256v25.166a142.259,142.259,0,0,0,33.868-4.12C286.294,311.611,281.327,310.111,276.945,308.8Z" transform="translate(-217.258 -236.527)" fill="#fb9"/>
          <path id="Path_25328" data-name="Path 25328" d="M189.308,101.2c-.8-2.3-1.711-4.9-2.675-8.07a2.98,2.98,0,0,0-5.832.864c0,5.708-4.021,9.212-8.94,11.385-7.74,3.419-17.72,3.516-17.884,3.516a2.982,2.982,0,0,0-2.977,2.98v5.96a20.866,20.866,0,0,0,20.861,20.851c.012,0,.023,0,.035,0,12.054,0,20.826-9.98,20.826-21.562C192.722,110.958,191.29,106.864,189.308,101.2Z" transform="translate(-133.119 -72.932)" fill="#fdc"/>
          <path id="Path_25329" data-name="Path 25329" d="M276.861,117.124c0-6.167-1.432-10.262-3.414-15.928-.8-2.3-1.711-4.9-2.674-8.07a2.98,2.98,0,0,0-5.832.864c0,5.708-4.021,9.212-8.94,11.385v33.307c.012,0,.023,0,.035,0C268.089,138.687,276.861,128.706,276.861,117.124Z" transform="translate(-217.258 -72.931)" fill="#ffccb3"/>
        </g>
      </g>
    </g>
  </g>
</svg>
