<svg xmlns="http://www.w3.org/2000/svg" xmlns:xlink="http://www.w3.org/1999/xlink" width="33.453" height="30" viewBox="0 0 33.453 30">
  <defs>
    <linearGradient id="linear-gradient" x1="0.5" x2="0.5" y2="1" gradientUnits="objectBoundingBox">
      <stop offset="0" stop-color="#0dad46"/>
      <stop offset="1" stop-color="#0ba340"/>
    </linearGradient>
  </defs>
  <g id="megaphone" transform="translate(0 -26.424)">
    <g id="Group_1578" data-name="Group 1578" transform="translate(0 26.424)">
      <path id="Path_23977" data-name="Path 23977" d="M64.074,359.141l-.059,0a5.589,5.589,0,0,1-1.341-.248l-2.981,5.161a.98.98,0,0,0,.369,1.345L63,367.041a.981.981,0,0,0,1.329-.365l4.352-7.536Z" transform="translate(-55.669 -337.166)" fill="url(#linear-gradient)"/>
      <g id="Group_1577" data-name="Group 1577" transform="translate(0 0)">
        <path id="Path_23978" data-name="Path 23978" d="M255.319,26.57l-8.855,5.421V47.6l8.866,5.267a.98.98,0,0,0,1.481-.843V27.406A.98.98,0,0,0,255.319,26.57Z" transform="translate(-230.361 -26.424)" fill="url(#linear-gradient)"/>
        <g id="Group_1576" data-name="Group 1576" transform="translate(0 6.762)">
          <path id="Path_23979" data-name="Path 23979" d="M3.171,170.138v-6.584a5.267,5.267,0,0,1,.116-1.1H1.862A1.862,1.862,0,0,0,0,164.316v5.06a1.862,1.862,0,0,0,1.862,1.861H3.287a5.3,5.3,0,0,1-.116-1.1Z" transform="translate(0 -160.329)" fill="url(#linear-gradient)"/>
          <path id="Path_23980" data-name="Path 23980" d="M87.551,143.164H81.873a3.505,3.505,0,0,1-3.333-3.443v-6.583a3.171,3.171,0,0,1,3.333-3.22h5.678Z" transform="translate(-73.408 -129.912)" fill="url(#linear-gradient)"/>
        </g>
      </g>
    </g>
    <g id="Group_1579" data-name="Group 1579" transform="translate(27.798 32.018)">
      <path id="Path_23981" data-name="Path 23981" d="M428.4,295.969a.978.978,0,0,1-.693-.287l-1.978-1.977a.98.98,0,1,1,1.386-1.386L429.1,294.3a.98.98,0,0,1-.693,1.673Z" transform="translate(-425.446 -280.271)" fill="url(#linear-gradient)"/>
      <path id="Path_23982" data-name="Path 23982" d="M426.425,115.969a.98.98,0,0,1-.693-1.673l1.978-1.977A.98.98,0,0,1,429.1,113.7l-1.978,1.977A.977.977,0,0,1,426.425,115.969Z" transform="translate(-425.445 -112.032)" fill="url(#linear-gradient)"/>
      <path id="Path_23983" data-name="Path 23983" d="M442.96,219.121h-2.8a.98.98,0,1,1,0-1.96h2.8a.98.98,0,1,1,0,1.96Z" transform="translate(-438.285 -210.292)" fill="url(#linear-gradient)"/>
    </g>
  </g>
</svg>
