<svg xmlns="http://www.w3.org/2000/svg" width="188" height="187.416" viewBox="0 0 188 187.416">
  <g id="cityscape" transform="translate(0 -0.796)" opacity="0.65">
    <g id="Group_8773" data-name="Group 8773" transform="translate(0 0.796)">
      <g id="Group_8772" data-name="Group 8772">
        <path id="Path_33484" data-name="Path 33484" d="M185.208,142.255h-18.4V119.441a2.792,2.792,0,0,0-5.584,0v63.187H113.309V99.678h47.918v6.732a2.792,2.792,0,0,0,5.584,0V96.887a2.792,2.792,0,0,0-2.792-2.792H125.87V3.588A2.792,2.792,0,0,0,123.078.8H65.007a2.792,2.792,0,0,0-2.792,2.792V45.356H26.1a2.792,2.792,0,0,0-2.792,2.792V116.8H2.792A2.792,2.792,0,0,0,0,119.588v65.832a2.792,2.792,0,0,0,2.792,2.792H185.208A2.792,2.792,0,0,0,188,185.419V145.047A2.792,2.792,0,0,0,185.208,142.255Zm-161.9,40.372H5.584V122.38H23.306Zm58.072,0H28.89v-15.44H81.378Zm0-39.823H56.214a2.792,2.792,0,1,0,0,5.584H81.378V161.6H28.89V148.388H43.184a2.792,2.792,0,0,0,0-5.584H28.89V129.589H81.378Zm0-18.8H28.89V110.79H81.378Zm0-18.8H28.89V91.992H81.378Zm0-18.8H28.89V73.193H81.378Zm0-18.8H28.89V50.94H81.378Zm26.346,29.279v85.741H86.962V48.148a2.792,2.792,0,0,0-2.792-2.792H80.363V39.772a2.792,2.792,0,1,0-5.584,0v5.584H67.8V6.38h52.487V94.1h-9.77A2.792,2.792,0,0,0,107.724,96.887Zm74.691,85.74h-15.6V147.839h15.6Z" transform="translate(0 -0.796)" fill="#bfbfbf"/>
      </g>
    </g>
    <g id="Group_8775" data-name="Group 8775" transform="translate(107.724 61.289)">
      <g id="Group_8774" data-name="Group 8774">
        <path id="Path_33485" data-name="Path 33485" d="M296.169,165.543a2.792,2.792,0,0,0-2.792,2.792v8.376a2.792,2.792,0,1,0,5.584,0v-8.376A2.792,2.792,0,0,0,296.169,165.543Z" transform="translate(-293.377 -165.543)" fill="#bfbfbf"/>
      </g>
    </g>
    <g id="Group_8777" data-name="Group 8777" transform="translate(91.252 61.289)">
      <g id="Group_8776" data-name="Group 8776">
        <path id="Path_33486" data-name="Path 33486" d="M251.308,165.543a2.792,2.792,0,0,0-2.792,2.792v8.376a2.792,2.792,0,1,0,5.584,0v-8.376A2.792,2.792,0,0,0,251.308,165.543Z" transform="translate(-248.516 -165.543)" fill="#bfbfbf"/>
      </g>
    </g>
    <g id="Group_8779" data-name="Group 8779" transform="translate(107.724 36.98)">
      <g id="Group_8778" data-name="Group 8778">
        <path id="Path_33487" data-name="Path 33487" d="M296.169,99.34a2.792,2.792,0,0,0-2.792,2.792v8.376a2.792,2.792,0,0,0,5.584,0v-8.376A2.792,2.792,0,0,0,296.169,99.34Z" transform="translate(-293.377 -99.34)" fill="#bfbfbf"/>
      </g>
    </g>
    <g id="Group_8781" data-name="Group 8781" transform="translate(91.252 36.98)">
      <g id="Group_8780" data-name="Group 8780">
        <path id="Path_33488" data-name="Path 33488" d="M251.308,99.34a2.792,2.792,0,0,0-2.792,2.792v8.376a2.792,2.792,0,0,0,5.584,0v-8.376A2.792,2.792,0,0,0,251.308,99.34Z" transform="translate(-248.516 -99.34)" fill="#bfbfbf"/>
      </g>
    </g>
    <g id="Group_8783" data-name="Group 8783" transform="translate(74.779 12.671)">
      <g id="Group_8782" data-name="Group 8782">
        <path id="Path_33489" data-name="Path 33489" d="M206.446,33.137a2.792,2.792,0,0,0-2.792,2.792v8.376a2.792,2.792,0,1,0,5.584,0V35.929A2.792,2.792,0,0,0,206.446,33.137Z" transform="translate(-203.654 -33.137)" fill="#bfbfbf"/>
      </g>
    </g>
    <g id="Group_8785" data-name="Group 8785" transform="translate(107.724 12.671)">
      <g id="Group_8784" data-name="Group 8784">
        <path id="Path_33490" data-name="Path 33490" d="M296.169,33.137a2.792,2.792,0,0,0-2.792,2.792v8.376a2.792,2.792,0,0,0,5.584,0V35.929A2.792,2.792,0,0,0,296.169,33.137Z" transform="translate(-293.377 -33.137)" fill="#bfbfbf"/>
      </g>
    </g>
    <g id="Group_8787" data-name="Group 8787" transform="translate(91.252 12.671)">
      <g id="Group_8786" data-name="Group 8786">
        <path id="Path_33491" data-name="Path 33491" d="M251.308,33.137a2.792,2.792,0,0,0-2.792,2.792v8.376a2.792,2.792,0,0,0,5.584,0V35.929A2.792,2.792,0,0,0,251.308,33.137Z" transform="translate(-248.516 -33.137)" fill="#bfbfbf"/>
      </g>
    </g>
    <g id="Group_8789" data-name="Group 8789" transform="translate(107.729 85.731)">
      <g id="Group_8788" data-name="Group 8788">
        <path id="Path_33492" data-name="Path 33492" d="M294.685,232.532a2.79,2.79,0,1,0,4.142,3.233A2.81,2.81,0,0,0,294.685,232.532Z" transform="translate(-293.389 -232.109)" fill="#bfbfbf"/>
      </g>
    </g>
    <g id="Group_8791" data-name="Group 8791" transform="translate(91.252 85.719)">
      <g id="Group_8790" data-name="Group 8790">
        <path id="Path_33493" data-name="Path 33493" d="M251.308,232.075a2.792,2.792,0,0,0-2.792,2.792v8.376a2.792,2.792,0,1,0,5.584,0v-8.376A2.792,2.792,0,0,0,251.308,232.075Z" transform="translate(-248.516 -232.075)" fill="#bfbfbf"/>
      </g>
    </g>
    <g id="Group_8793" data-name="Group 8793" transform="translate(91.252 159.008)">
      <g id="Group_8792" data-name="Group 8792">
        <path id="Path_33494" data-name="Path 33494" d="M251.308,431.671a2.792,2.792,0,0,0-2.792,2.792v8.376a2.792,2.792,0,1,0,5.584,0v-8.376A2.792,2.792,0,0,0,251.308,431.671Z" transform="translate(-248.516 -431.671)" fill="#bfbfbf"/>
      </g>
    </g>
    <g id="Group_8795" data-name="Group 8795" transform="translate(91.252 134.578)">
      <g id="Group_8794" data-name="Group 8794">
        <path id="Path_33495" data-name="Path 33495" d="M251.308,365.139a2.792,2.792,0,0,0-2.792,2.792v8.376a2.792,2.792,0,1,0,5.584,0v-8.376A2.792,2.792,0,0,0,251.308,365.139Z" transform="translate(-248.516 -365.139)" fill="#bfbfbf"/>
      </g>
    </g>
    <g id="Group_8797" data-name="Group 8797" transform="translate(91.252 110.149)">
      <g id="Group_8796" data-name="Group 8796">
        <path id="Path_33496" data-name="Path 33496" d="M251.308,298.608a2.792,2.792,0,0,0-2.792,2.792v8.376a2.792,2.792,0,1,0,5.584,0V301.4A2.792,2.792,0,0,0,251.308,298.608Z" transform="translate(-248.516 -298.608)" fill="#bfbfbf"/>
      </g>
    </g>
    <g id="Group_8799" data-name="Group 8799" transform="translate(119.031 158.158)">
      <g id="Group_8798" data-name="Group 8798">
        <path id="Path_33497" data-name="Path 33497" d="M357.851,429.355H326.962a2.792,2.792,0,1,0,0,5.584h30.889a2.792,2.792,0,0,0,0-5.584Z" transform="translate(-324.17 -429.355)" fill="#bfbfbf"/>
      </g>
    </g>
    <g id="Group_8801" data-name="Group 8801" transform="translate(119.031 171.356)">
      <g id="Group_8800" data-name="Group 8800">
        <path id="Path_33498" data-name="Path 33498" d="M357.851,465.3H326.962a2.792,2.792,0,1,0,0,5.584h30.889a2.792,2.792,0,0,0,0-5.584Z" transform="translate(-324.17 -465.299)" fill="#bfbfbf"/>
      </g>
    </g>
    <g id="Group_8803" data-name="Group 8803" transform="translate(119.031 144.96)">
      <g id="Group_8802" data-name="Group 8802">
        <path id="Path_33499" data-name="Path 33499" d="M357.851,393.413H326.962a2.792,2.792,0,1,0,0,5.584h30.889a2.792,2.792,0,0,0,0-5.584Z" transform="translate(-324.17 -393.413)" fill="#bfbfbf"/>
      </g>
    </g>
    <g id="Group_8805" data-name="Group 8805" transform="translate(119.031 105.366)">
      <g id="Group_8804" data-name="Group 8804">
        <path id="Path_33500" data-name="Path 33500" d="M357.851,285.583H326.962a2.792,2.792,0,1,0,0,5.584h30.889a2.792,2.792,0,0,0,0-5.584Z" transform="translate(-324.17 -285.583)" fill="#bfbfbf"/>
      </g>
    </g>
    <g id="Group_8807" data-name="Group 8807" transform="translate(119.031 131.762)">
      <g id="Group_8806" data-name="Group 8806">
        <path id="Path_33501" data-name="Path 33501" d="M357.851,357.469H326.962a2.792,2.792,0,1,0,0,5.584h30.889a2.792,2.792,0,1,0,0-5.584Z" transform="translate(-324.17 -357.469)" fill="#bfbfbf"/>
      </g>
    </g>
    <g id="Group_8809" data-name="Group 8809" transform="translate(119.031 118.564)">
      <g id="Group_8808" data-name="Group 8808">
        <path id="Path_33502" data-name="Path 33502" d="M357.851,321.527H326.962a2.792,2.792,0,1,0,0,5.584h30.889a2.792,2.792,0,0,0,0-5.584Z" transform="translate(-324.17 -321.527)" fill="#bfbfbf"/>
      </g>
    </g>
    <g id="Group_8811" data-name="Group 8811" transform="translate(11.653 126.818)">
      <g id="Group_8810" data-name="Group 8810">
        <path id="Path_33503" data-name="Path 33503" d="M34.527,344a2.792,2.792,0,0,0-2.792,2.792v7.259a2.792,2.792,0,0,0,5.584,0V346.8A2.792,2.792,0,0,0,34.527,344Z" transform="translate(-31.735 -344.004)" fill="#bfbfbf"/>
      </g>
    </g>
    <g id="Group_8813" data-name="Group 8813" transform="translate(11.653 146.082)">
      <g id="Group_8812" data-name="Group 8812">
        <path id="Path_33504" data-name="Path 33504" d="M34.527,396.469a2.792,2.792,0,0,0-2.792,2.792v7.259a2.792,2.792,0,1,0,5.584,0v-7.259A2.792,2.792,0,0,0,34.527,396.469Z" transform="translate(-31.735 -396.469)" fill="#bfbfbf"/>
      </g>
    </g>
    <g id="Group_8815" data-name="Group 8815" transform="translate(11.653 165.347)">
      <g id="Group_8814" data-name="Group 8814">
        <path id="Path_33505" data-name="Path 33505" d="M34.527,448.934a2.792,2.792,0,0,0-2.792,2.792v7.259a2.792,2.792,0,0,0,5.584,0v-7.259A2.792,2.792,0,0,0,34.527,448.934Z" transform="translate(-31.735 -448.934)" fill="#bfbfbf"/>
      </g>
    </g>
    <g id="Group_8817" data-name="Group 8817" transform="translate(171.822 154.539)">
      <g id="Group_8816" data-name="Group 8816">
        <path id="Path_33506" data-name="Path 33506" d="M470.732,419.5a2.792,2.792,0,0,0-2.792,2.792v7.9a2.792,2.792,0,0,0,5.584,0v-7.9A2.792,2.792,0,0,0,470.732,419.5Z" transform="translate(-467.94 -419.501)" fill="#bfbfbf"/>
      </g>
    </g>
    <g id="Group_8819" data-name="Group 8819" transform="translate(129.575 54.588)">
      <g id="Group_8818" data-name="Group 8818">
        <path id="Path_33507" data-name="Path 33507" d="M389.737,147.293H355.676a2.792,2.792,0,0,0,0,5.584h34.061a2.792,2.792,0,1,0,0-5.584Z" transform="translate(-352.884 -147.293)" fill="#bfbfbf"/>
      </g>
    </g>
    <g id="Group_8821" data-name="Group 8821" transform="translate(149.676 66.314)">
      <g id="Group_8820" data-name="Group 8820">
        <path id="Path_33508" data-name="Path 33508" d="M434.99,179.228H410.421a2.792,2.792,0,0,0,0,5.584H434.99a2.792,2.792,0,1,0,0-5.584Z" transform="translate(-407.629 -179.228)" fill="#bfbfbf"/>
      </g>
    </g>
    <g id="Group_8823" data-name="Group 8823" transform="translate(22.922 21.643)">
      <g id="Group_8822" data-name="Group 8822">
        <path id="Path_33509" data-name="Path 33509" d="M89.786,57.571H65.217a2.792,2.792,0,1,0,0,5.584H89.786a2.792,2.792,0,1,0,0-5.584Z" transform="translate(-62.425 -57.571)" fill="#bfbfbf"/>
      </g>
    </g>
    <g id="Group_8825" data-name="Group 8825" transform="translate(8.962 30.949)">
      <g id="Group_8824" data-name="Group 8824">
        <path id="Path_33510" data-name="Path 33510" d="M51.769,82.916H27.2a2.792,2.792,0,1,0,0,5.584H51.769a2.792,2.792,0,1,0,0-5.584Z" transform="translate(-24.408 -82.916)" fill="#bfbfbf"/>
      </g>
    </g>
  </g>
</svg>
