<svg xmlns="http://www.w3.org/2000/svg" xmlns:xlink="http://www.w3.org/1999/xlink" width="38" height="38" viewBox="0 0 38 38">
  <defs>
    <style>
      .cls-1 {
        fill: url(#linear-gradient);
      }
    </style>
    <linearGradient id="linear-gradient" x1="0.5" x2="0.5" y2="1" gradientUnits="objectBoundingBox">
      <stop offset="0" stop-color="#3bb859"/>
      <stop offset="1" stop-color="#216a33"/>
    </linearGradient>
  </defs>
  <path id="facebook" class="cls-1" d="M35.9,0H2.1A2.1,2.1,0,0,0,0,2.1V35.9A2.1,2.1,0,0,0,2.1,38H20.3V23.3H15.363V17.552H20.3V13.319c0-4.909,3-7.581,7.376-7.581a40.6,40.6,0,0,1,4.425.226V11.1H29.08c-2.382,0-2.844,1.132-2.844,2.794v3.663h5.7L31.19,23.3H26.236V38H35.9A2.1,2.1,0,0,0,38,35.9h0V2.1A2.1,2.1,0,0,0,35.9,0Zm0,0" transform="translate(0 0)"/>
</svg>
