<svg id="instagram" xmlns="http://www.w3.org/2000/svg" xmlns:xlink="http://www.w3.org/1999/xlink" width="37.992" height="38" viewBox="0 0 37.992 38">
  <defs>
    <style>
      .cls-1 {
        fill: url(#linear-gradient);
      }
    </style>
    <linearGradient id="linear-gradient" x1="0.5" x2="0.5" y2="1" gradientUnits="objectBoundingBox">
      <stop offset="0" stop-color="#3bb859"/>
      <stop offset="1" stop-color="#216a33"/>
    </linearGradient>
  </defs>
  <path id="Path_23971" data-name="Path 23971" class="cls-1" d="M38.344,11.172a13.885,13.885,0,0,0-.883-4.61A9.734,9.734,0,0,0,31.9,1a13.921,13.921,0,0,0-4.61-.883C25.257.022,24.611,0,19.452,0s-5.8.022-7.832.111a13.889,13.889,0,0,0-4.61.883,9.272,9.272,0,0,0-3.37,2.2,9.356,9.356,0,0,0-2.19,3.363,13.922,13.922,0,0,0-.883,4.61C.471,13.2.449,13.844.449,19s.022,5.8.111,7.832a13.884,13.884,0,0,0,.884,4.61A9.733,9.733,0,0,0,7,37a13.923,13.923,0,0,0,4.61.883c2.026.089,2.672.111,7.832.111s5.8-.022,7.832-.111A13.882,13.882,0,0,0,31.886,37a9.72,9.72,0,0,0,5.56-5.56,13.932,13.932,0,0,0,.883-4.61c.089-2.027.111-2.672.111-7.832s-.008-5.8-.1-7.832ZM34.922,26.687a10.415,10.415,0,0,1-.653,3.526,6.3,6.3,0,0,1-3.608,3.608,10.452,10.452,0,0,1-3.526.653c-2,.089-2.605.111-7.675.111s-5.679-.022-7.676-.111a10.41,10.41,0,0,1-3.526-.653A5.847,5.847,0,0,1,6.076,32.4,5.908,5.908,0,0,1,4.658,30.22,10.454,10.454,0,0,1,4,26.694c-.089-2-.111-2.606-.111-7.676S3.915,13.34,4,11.343a10.41,10.41,0,0,1,.653-3.526A5.776,5.776,0,0,1,6.083,5.634,5.9,5.9,0,0,1,8.265,4.217a10.459,10.459,0,0,1,3.526-.653c2-.089,2.606-.111,7.675-.111s5.679.022,7.676.111a10.415,10.415,0,0,1,3.526.653,5.843,5.843,0,0,1,2.182,1.418,5.907,5.907,0,0,1,1.418,2.183,10.458,10.458,0,0,1,.653,3.526c.089,2,.111,2.605.111,7.675s-.022,5.664-.111,7.668Zm0,0" transform="translate(-0.449 0)"/>
  <path id="Path_23972" data-name="Path 23972" class="cls-1" d="M134.711,124.5a9.762,9.762,0,1,0,9.762,9.762A9.764,9.764,0,0,0,134.711,124.5Zm0,16.094a6.332,6.332,0,1,1,6.332-6.332A6.333,6.333,0,0,1,134.711,140.594Zm0,0" transform="translate(-115.707 -115.258)"/>
  <path id="Path_23973" data-name="Path 23973" class="cls-1" d="M367.008,90.881a2.279,2.279,0,1,1-2.279-2.279A2.279,2.279,0,0,1,367.008,90.881Zm0,0" transform="translate(-335.578 -82.025)"/>
</svg>
