<svg xmlns="http://www.w3.org/2000/svg" xmlns:xlink="http://www.w3.org/1999/xlink" width="71" height="72" viewBox="0 0 71 72">
  <defs>
    <filter id="Ellipse_1820" x="0" y="0" width="71" height="72" filterUnits="userSpaceOnUse">
      <feOffset dy="3" input="SourceAlpha"/>
      <feGaussianBlur stdDeviation="3" result="blur"/>
      <feFlood flood-opacity="0.161"/>
      <feComposite operator="in" in2="blur"/>
      <feComposite in="SourceGraphic"/>
    </filter>
  </defs>
  <g id="Group_9311" data-name="Group 9311" transform="translate(-819 -2798)">
    <g transform="matrix(1, 0, 0, 1, 819, 2798)" filter="url(#Ellipse_1820)">
      <ellipse id="Ellipse_1820-2" data-name="Ellipse 1820" cx="26.5" cy="27" rx="26.5" ry="27" transform="translate(9 6)" fill="#37b555"/>
    </g>
    <g id="right-arrow" transform="translate(844.021 2817.492)">
      <g id="Group_3162" data-name="Group 3162" transform="translate(0)">
        <path id="Path_25913" data-name="Path 25913" d="M101.907,12.391,113.868.429a1.473,1.473,0,0,1,2.079,0l.881.881a1.472,1.472,0,0,1,0,2.079L106.784,13.434,116.84,23.489a1.474,1.474,0,0,1,0,2.08l-.881.88a1.474,1.474,0,0,1-2.079,0L101.907,14.477a1.484,1.484,0,0,1,0-2.087Z" transform="translate(-101.478)" fill="#fff"/>
      </g>
    </g>
  </g>
</svg>
