<svg xmlns="http://www.w3.org/2000/svg" xmlns:xlink="http://www.w3.org/1999/xlink" width="119.934" height="119.934" viewBox="0 0 119.934 119.934">
  <defs>
    <style>
      .cls-1 {
        fill: #fdfdfd;
      }

      .cls-2 {
        fill: none;
      }

      .cls-3 {
        fill: #fff;
      }

      .cls-4 {
        fill: url(#linear-gradient);
      }

      .cls-5 {
        isolation: isolate;
      }

      .cls-6 {
        filter: url(#EasyMed);
      }

      .cls-7 {
        filter: url(#Ellipse_1375);
      }

      .cls-8 {
        filter: url(#Ellipse_1374);
      }
    </style>
    <filter id="Ellipse_1374" x="5.225" y="5.225" width="114.709" height="114.709" filterUnits="userSpaceOnUse">
      <feOffset dx="2.322" dy="2.322" input="SourceAlpha"/>
      <feGaussianBlur stdDeviation="1.452" result="blur"/>
      <feFlood flood-color="#858585" flood-opacity="0.749"/>
      <feComposite operator="in" in2="blur"/>
      <feComposite in="SourceGraphic"/>
    </filter>
    <filter id="Ellipse_1375" x="0" y="0" width="114.709" height="114.709" filterUnits="userSpaceOnUse">
      <feOffset dx="-2.903" dy="-2.903" input="SourceAlpha"/>
      <feGaussianBlur stdDeviation="1.452" result="blur-2"/>
      <feFlood flood-color="#fff" flood-opacity="0.749"/>
      <feComposite operator="in" in2="blur-2"/>
      <feComposite in="SourceGraphic"/>
    </filter>
    <filter id="EasyMed" x="10.258" y="13.257" width="99" height="99" filterUnits="userSpaceOnUse">
      <feOffset dy="3" input="SourceAlpha"/>
      <feGaussianBlur stdDeviation="3" result="blur-3"/>
      <feFlood flood-opacity="0.161"/>
      <feComposite operator="in" in2="blur-3"/>
      <feComposite in="SourceGraphic"/>
    </filter>
    <linearGradient id="linear-gradient" x1="0.5" x2="0.5" y2="1" gradientUnits="objectBoundingBox">
      <stop offset="0" stop-color="#3bb859"/>
      <stop offset="1" stop-color="#216a33"/>
    </linearGradient>
  </defs>
  <g id="Group_8881" data-name="Group 8881" transform="translate(-92.742 -4884.743)">
    <g id="Group_3412" data-name="Group 3412" transform="translate(100 4892)">
      <g id="Group_3406" data-name="Group 3406" transform="translate(0 0)">
        <g class="cls-8" transform="matrix(1, 0, 0, 1, -7.26, -7.26)">
          <ellipse id="Ellipse_1374-2" data-name="Ellipse 1374" class="cls-1" cx="45.234" cy="45.234" rx="45.234" ry="45.234" transform="matrix(-0.19, -0.98, 0.98, -0.19, 24.44, 113.26)"/>
        </g>
        <g class="cls-7" transform="matrix(1, 0, 0, 1, -7.26, -7.26)">
          <ellipse id="Ellipse_1375-2" data-name="Ellipse 1375" class="cls-1" cx="45.234" cy="45.234" rx="45.234" ry="45.234" transform="matrix(-0.19, -0.98, 0.98, -0.19, 24.44, 113.26)"/>
        </g>
      </g>
      <ellipse id="Ellipse_1376" data-name="Ellipse 1376" class="cls-2" cx="45.234" cy="45.234" rx="45.234" ry="45.234" transform="matrix(-0.19, -0.982, 0.982, -0.19, 17.178, 106)"/>
    </g>
    <g class="cls-6" transform="matrix(1, 0, 0, 1, 92.74, 4884.74)">
      <ellipse id="EasyMed-2" data-name="EasyMed" class="cls-3" cx="40.5" cy="40.5" rx="40.5" ry="40.5" transform="translate(19.26 19.26)"/>
    </g>
    <ellipse id="EasyMed-3" data-name="EasyMed" class="cls-4" cx="37.5" cy="37.5" rx="37.5" ry="37.5" transform="translate(115 4907)"/>
    <g id="network_1_" data-name="network (1)" class="cls-5" transform="translate(103.539 4916.023)">
      <g id="Group_3757" data-name="Group 3757" transform="translate(27.055 0.001)">
        <path id="Path_27096" data-name="Path 27096" class="cls-3" d="M57.342,27.818l4.641.921a4.731,4.731,0,1,0,.48-2.391l-4.8-.953a7.591,7.591,0,0,0-1.983-4.9l6.474-9.145a5.916,5.916,0,1,0-1.99-1.411l-6.4,9.037a7.6,7.6,0,0,0-9.288,1.454l-8.383-6.51a4.741,4.741,0,1,0-1.566,1.872l8.588,6.669a7.6,7.6,0,0,0,1.806,8.8l-5.144,7.275a6.3,6.3,0,1,0,1.866,1.585l5.323-7.529a7.594,7.594,0,0,0,5.851.129l6.364,9.4A5.34,5.34,0,1,0,61.166,40.7L54.92,31.473A7.641,7.641,0,0,0,57.342,27.818Zm9.36-1.666a2.291,2.291,0,1,1-2.291,2.291A2.291,2.291,0,0,1,66.7,26.152ZM64.489,2.469A3.461,3.461,0,1,1,61.028,5.93,3.461,3.461,0,0,1,64.489,2.469ZM31.805,14.214A2.291,2.291,0,1,1,34.1,11.923,2.293,2.293,0,0,1,31.805,14.214Zm4.921,33.642a3.839,3.839,0,1,1,3.84-3.839A3.839,3.839,0,0,1,36.727,47.856ZM63.192,42.74a2.91,2.91,0,1,1-2.91,2.91A2.914,2.914,0,0,1,63.192,42.74ZM50.045,30.8a5.188,5.188,0,0,1-5.182-5.182h0A5.182,5.182,0,1,1,50.045,30.8Z" transform="translate(-27.055 -0.001)"/>
      </g>
    </g>
  </g>
</svg>
