<svg xmlns="http://www.w3.org/2000/svg" xmlns:xlink="http://www.w3.org/1999/xlink" width="1920" height="597.979" viewBox="0 0 1920 597.979"><defs><style>.a{fill:#0dad46;}.b{clip-path:url(#a);}.c{fill:#33bc6c;opacity:0.303;}.d,.g{fill:#216a33;}.d{opacity:0.06;}.e{opacity:0.4;}.f{fill:#75d7ad;}.g{opacity:0.063;}.h{fill:#19d166;opacity:0.166;}.i{filter:url(#b);}</style><clipPath id="a"><path class="a" d="M3966.135,6276.081l1378.921,4.011c37.283-.989,59.812-2.3,63.443-4.011,31.037-14.624,58.636-49.291,125.363-98.757,10.609-7.865,26.751-23.229,46.641-26.731h305.632c-.293-2.168,0,597.974,0,597.974h-1920Z" transform="translate(-23291.135 -2465.586)"/></clipPath><filter id="b" x="1243.406" y="258.155" width="787.567" height="438.659" filterUnits="userSpaceOnUse"><feOffset dy="3" input="SourceAlpha"/><feGaussianBlur stdDeviation="3" result="c"/><feFlood flood-opacity="0.161"/><feComposite operator="in" in2="c"/><feComposite in="SourceGraphic"/></filter></defs><g transform="translate(17612 -2892)"><path class="a" d="M3966.135,6270.081l1378.921.011c37.283-.989,59.812-2.3,63.443-4.011,31.037-14.624,58.636-39.291,125.363-88.757,10.609-7.865,26.751-23.229,46.641-26.731h305.632c-.293-2.168,0,597.974,0,597.974h-1920Z" transform="translate(-21578.135 -3258.586)"/><g class="b" transform="translate(1713 -793)"><g transform="translate(-19426.039 3472.83)"><path class="c" d="M269.493,424.316c13.168-11.461,31.8-17.67,48.981-20.664,60.619-10.566,157.868,7.335,158.943,84.959.7,50.49-38.121,103.258-81.379,126.271-25.925,13.793-73.58,27.55-101.612,12.651-27.41-14.567-28.108-54.009-28.251-80.49-.076-14.191.729-26.062-2.921-39.436-4.84-17.752-13.444-32.957-10.851-52.209C254.179,442.217,260.588,432.064,269.493,424.316Z" transform="translate(1373.904 -232.964)"/><path class="d" d="M157.777,533.128c-23.329-6.106-44.947-18.97-62.925-35.242C44.427,452.25,16.892,387.516,6.841,321.169-3.733,251.384-6.469,186.344,31.788,124.811,63.912,73.143,113.76,32.221,171.606,12.825,273.771-21.429,399.881,14.681,466.361,100.3c35.16,45.283,50.949,107.328,33.337,161.886-18.2,56.382-64.219,84.325-119.193,94.389-31.679,5.8-71.1,8.013-95.233,32.181C272.63,401.412,268.4,417,268.956,434.262c.794,24.928,1.341,56.394-15.3,76.784-17.13,20.992-48.648,27.473-74.263,25.675A118.1,118.1,0,0,1,157.777,533.128Z" transform="translate(910.851 133.407) rotate(8)"/><g transform="translate(1936.816 379.708)"><g class="e"><circle class="f" cx="5" cy="5" r="5" transform="translate(80)"/><circle class="f" cx="5" cy="5" r="5" transform="translate(60)"/><circle class="f" cx="5" cy="5" r="5" transform="translate(40)"/><circle class="f" cx="5" cy="5" r="5" transform="translate(20)"/><circle class="f" cx="5" cy="5" r="5"/></g><g class="e" transform="translate(0 20)"><circle class="f" cx="5" cy="5" r="5" transform="translate(80)"/><circle class="f" cx="5" cy="5" r="5" transform="translate(60)"/><circle class="f" cx="5" cy="5" r="5" transform="translate(40)"/><circle class="f" cx="5" cy="5" r="5" transform="translate(20)"/><circle class="f" cx="5" cy="5" r="5"/></g><g class="e" transform="translate(0 40)"><circle class="f" cx="5" cy="5" r="5" transform="translate(80)"/><circle class="f" cx="5" cy="5" r="5" transform="translate(60)"/><circle class="f" cx="5" cy="5" r="5" transform="translate(40)"/><circle class="f" cx="5" cy="5" r="5" transform="translate(20)"/><circle class="f" cx="5" cy="5" r="5"/></g><g class="e" transform="translate(0 60)"><circle class="f" cx="5" cy="5" r="5" transform="translate(80)"/><circle class="f" cx="5" cy="5" r="5" transform="translate(60)"/><circle class="f" cx="5" cy="5" r="5" transform="translate(40)"/><circle class="f" cx="5" cy="5" r="5" transform="translate(20)"/><circle class="f" cx="5" cy="5" r="5"/></g><g class="e" transform="translate(0 80)"><circle class="f" cx="5" cy="5" r="5" transform="translate(80)"/><circle class="f" cx="5" cy="5" r="5" transform="translate(60)"/><circle class="f" cx="5" cy="5" r="5" transform="translate(40)"/><circle class="f" cx="5" cy="5" r="5" transform="translate(20)"/><circle class="f" cx="5" cy="5" r="5"/></g><g class="e" transform="translate(0 100)"><circle class="f" cx="5" cy="5" r="5" transform="translate(80)"/><circle class="f" cx="5" cy="5" r="5" transform="translate(60)"/><circle class="f" cx="5" cy="5" r="5" transform="translate(40)"/><circle class="f" cx="5" cy="5" r="5" transform="translate(20)"/><circle class="f" cx="5" cy="5" r="5"/></g></g><g transform="translate(35.201 719.357)"><g class="e"><circle class="f" cx="9" cy="9" r="9" transform="translate(143)"/><circle class="f" cx="9" cy="9" r="9" transform="translate(107)"/><circle class="f" cx="9" cy="9" r="9" transform="translate(72)"/><circle class="f" cx="9" cy="9" r="9" transform="translate(36)"/><circle class="f" cx="9" cy="9" r="9"/></g><g class="e" transform="translate(0 36)"><circle class="f" cx="9" cy="9" r="9" transform="translate(143)"/><circle class="f" cx="9" cy="9" r="9" transform="translate(107)"/><circle class="f" cx="9" cy="9" r="9" transform="translate(72)"/><circle class="f" cx="9" cy="9" r="9" transform="translate(36)"/><circle class="f" cx="9" cy="9" r="9"/></g><g class="e" transform="translate(0 72)"><circle class="f" cx="9" cy="9" r="9" transform="translate(143)"/><circle class="f" cx="9" cy="9" r="9" transform="translate(107)"/><circle class="f" cx="9" cy="9" r="9" transform="translate(72)"/><circle class="f" cx="9" cy="9" r="9" transform="translate(36)"/><circle class="f" cx="9" cy="9" r="9"/></g><g class="e" transform="translate(0 107)"><circle class="f" cx="9" cy="9" r="9" transform="translate(143)"/><circle class="f" cx="9" cy="9" r="9" transform="translate(107)"/><circle class="f" cx="9" cy="9" r="9" transform="translate(72)"/><circle class="f" cx="9" cy="9" r="9" transform="translate(36)"/><circle class="f" cx="9" cy="9" r="9"/></g><g class="e" transform="translate(0 143)"><circle class="f" cx="9" cy="9" r="9" transform="translate(143)"/><circle class="f" cx="9" cy="9" r="9" transform="translate(107)"/><circle class="f" cx="9" cy="9" r="9" transform="translate(72)"/><circle class="f" cx="9" cy="9" r="9" transform="translate(36)"/><circle class="f" cx="9" cy="9" r="9"/></g><g class="e" transform="translate(0 179)"><circle class="f" cx="9" cy="9" r="9" transform="translate(143)"/><circle class="f" cx="9" cy="9" r="9" transform="translate(107)"/><circle class="f" cx="9" cy="9" r="9" transform="translate(72)"/><circle class="f" cx="9" cy="9" r="9" transform="translate(36)"/><circle class="f" cx="9" cy="9" r="9"/></g></g><g class="i" transform="matrix(1, 0, 0, 1, 101.04, 212.17)"><path class="g" d="M411.384,48.527c40.117-11.23,86.249,6,117.354,36.982,32.037,31.907,46.064,78,76.612,111.438,60.8,66.553,159.247,50.809,230.385,100.5,34.2,23.889,72.253,72.486,61,117A68.485,68.485,0,0,1,859.511,459.2c-32.487,14.933-70.989,2.038-101.787-16.132-42.563-25.113-79.516-47.57-130.272-52.895-61.054-6.4-109.375,17.725-166.514,31.373-79.8,19.059-173.62,16.206-246.568-24.629-33.914-18.986-63.066-48.2-76.809-84.554-11.545-30.545-12.851-73.612,6.932-101.495,19.454-27.418,62.2-35.378,92.919-43.106,23.616-5.938,49.132-11.176,69.964-24.4,25.955-16.479,40.432-44.539,60.328-67.026C380.433,61.952,395.432,52.991,411.384,48.527Z" transform="translate(1123.22 219.07)"/></g><path class="h" d="M774.656-175.3c63.108,84.34,19.249,229.085-62.749,284.782-32.973,22.4-73.012,33.939-112.812,33.377-44.584-.629-83.1-19.506-121.507-40.4-34.364-18.7-69.445-30.8-108.9-32.879-29.259-1.541-58.717.028-87.773-3.726-48.6-6.28-104.361-36.33-104.14-92.351a76.9,76.9,0,0,1,31.154-60.869c31.911-23.2,62.6-15.319,98.609-19.97,39.367-5.084,76.42-22.02,110.707-41.3,58.867-33.117,115.869-70.467,183.739-82.191,55.012-9.5,115.86.326,157.36,37.667A123.619,123.619,0,0,1,774.656-175.3Z" transform="translate(836.242 409.472) rotate(-160)"/></g></g></g></svg>