<svg xmlns="http://www.w3.org/2000/svg" width="267.301" height="169.721" viewBox="0 0 267.301 169.721"><defs><style>.a{isolation:isolate;}.b{opacity:0.65;}.c{fill:#248446;}</style></defs><g class="a" transform="translate(0 -92.25)"><g class="b" transform="translate(0 92.25)"><path class="c" d="M231.178,166.929a30.517,30.517,0,1,0-35.013,0,52.875,52.875,0,0,0-18.035,10.578,68.421,68.421,0,0,0-24.752-13.487,38.662,38.662,0,1,0-39.984,0,68.991,68.991,0,0,0-24.488,13.328,53.305,53.305,0,0,0-17.824-10.366,30.517,30.517,0,1,0-35.013,0A53.567,53.567,0,0,0,0,217.6v3.491a.227.227,0,0,0,.212.212H64.895a71.135,71.135,0,0,0-.582,8.938v3.6A28.125,28.125,0,0,0,92.45,261.971h81.978a28.125,28.125,0,0,0,28.137-28.137v-3.6a71.132,71.132,0,0,0-.582-8.938H267.09a.227.227,0,0,0,.212-.212V217.6A53.773,53.773,0,0,0,231.178,166.929Zm-39.561-25.017A22.055,22.055,0,1,1,214.1,163.968h-.846A22.023,22.023,0,0,1,191.617,141.913Zm-88.536-11a30.2,30.2,0,1,1,31.945,30.147h-3.491A30.243,30.243,0,0,1,103.081,130.912Zm-71.718,11a22.055,22.055,0,1,1,22.478,22.055h-.846A22.058,22.058,0,0,1,31.363,141.913Zm35.013,70.871H8.568A45.19,45.19,0,0,1,53.1,172.43h.635A44.72,44.72,0,0,1,82.56,183.166,69.443,69.443,0,0,0,66.376,212.784ZM194,233.834a19.7,19.7,0,0,1-19.675,19.675H92.344A19.7,19.7,0,0,1,72.67,233.834v-3.6a60.754,60.754,0,0,1,58.866-60.664c.582.053,1.216.053,1.8.053s1.216,0,1.8-.053A60.754,60.754,0,0,1,194,230.238Zm6.294-21.05a69.26,69.26,0,0,0-16.025-29.406,44.936,44.936,0,0,1,29.089-10.948h.635a45.19,45.19,0,0,1,44.533,40.354Z" transform="translate(0 -92.25)"/></g></g></svg>