<svg xmlns="http://www.w3.org/2000/svg" xmlns:xlink="http://www.w3.org/1999/xlink" width="71" height="72" viewBox="0 0 71 72">
  <defs>
    <filter id="Ellipse_1821" x="0" y="0" width="71" height="72" filterUnits="userSpaceOnUse">
      <feOffset dy="3" input="SourceAlpha"/>
      <feGaussianBlur stdDeviation="3" result="blur"/>
      <feFlood flood-opacity="0.161"/>
      <feComposite operator="in" in2="blur"/>
      <feComposite in="SourceGraphic"/>
    </filter>
  </defs>
  <g id="Group_9426" data-name="Group 9426" transform="translate(-1783 -1499)">
    <g id="Group_9312" data-name="Group 9312" transform="translate(964 -1379)">
      <g transform="matrix(1, 0, 0, 1, 819, 2878)" filter="url(#Ellipse_1821)">
        <ellipse id="Ellipse_1821-2" data-name="Ellipse 1821" cx="26.5" cy="27" rx="26.5" ry="27" transform="translate(9 6)" fill="#37b555"/>
      </g>
      <g id="right-arrow" transform="translate(847.861 2898.063)">
        <g id="Group_3162" data-name="Group 3162" transform="translate(0)">
          <path id="Path_25913" data-name="Path 25913" d="M116.84,12.391,104.879.429a1.473,1.473,0,0,0-2.079,0l-.881.881a1.472,1.472,0,0,0,0,2.079l10.044,10.044L101.907,23.489a1.474,1.474,0,0,0,0,2.08l.881.88a1.474,1.474,0,0,0,2.079,0L116.84,14.477a1.484,1.484,0,0,0,0-2.087Z" transform="translate(-101.478)" fill="#fff"/>
        </g>
      </g>
    </g>
  </g>
</svg>
