<svg xmlns="http://www.w3.org/2000/svg" width="24.819" height="22" viewBox="0 0 24.819 22">
  <g id="caution-sign" transform="translate(0.001 -18.717)">
    <path id="Path_30685" data-name="Path 30685" d="M24.563,37.861,14.058,19.669a1.9,1.9,0,0,0-3.3,0L.254,37.861A1.9,1.9,0,0,0,1.9,40.717H22.914a1.9,1.9,0,0,0,1.649-2.856ZM1.9,38.813,12.409,20.621,22.914,38.813Z" transform="translate(0 0)" fill="#3bb859"/>
    <path id="Path_30686" data-name="Path 30686" d="M147.218,113.372l.546,6.251a.775.775,0,0,0,1.544,0l.546-6.251a1.416,1.416,0,0,0,0-.23,1.323,1.323,0,1,0-2.636.23Z" transform="translate(-136.128 -86.196)" fill="#3bb859"/>
    <circle id="Ellipse_1831" data-name="Ellipse 1831" cx="1.092" cy="1.092" r="1.092" transform="translate(11.317 34.518)" fill="#3bb859"/>
  </g>
</svg>
