<svg xmlns="http://www.w3.org/2000/svg" xmlns:xlink="http://www.w3.org/1999/xlink" width="375" height="310" viewBox="0 0 375 310"><defs><style>.a{fill:#fff;}.b{clip-path:url(#a);}.c{fill:#33bc6c;opacity:0.303;}.d,.g{fill:#216a33;}.d{opacity:0.12;}.e{opacity:0.4;}.f{fill:#75d7ad;}.g{opacity:0.07;}.h{fill:#19d166;opacity:0.166;}.i{filter:url(#b);}</style><clipPath id="a"><rect class="a" width="375" height="310" transform="translate(9105 75)"/></clipPath><filter id="b" x="115.397" y="-11" width="217.735" height="138.873" filterUnits="userSpaceOnUse"><feOffset dy="3" input="SourceAlpha"/><feGaussianBlur stdDeviation="3" result="c"/><feFlood flood-opacity="0.161"/><feComposite operator="in" in2="c"/><feComposite in="SourceGraphic"/></filter></defs><g class="b" transform="translate(-9105 -75)"><path class="c" d="M4.515,6.022C7.9,3.076,12.686,1.48,17.1.711,32.681-2,57.674,2.6,57.95,22.545c.179,12.976-9.8,26.537-20.914,32.451-6.663,3.545-18.91,7.08-26.114,3.251C3.878,54.5,3.7,44.367,3.662,37.562c-.02-3.647.187-6.7-.751-10.135C1.667,22.865-.544,18.957.123,14.01A12.577,12.577,0,0,1,4.515,6.022Z" transform="matrix(0.921, -0.391, 0.391, 0.921, 9081.984, 252.402)"/><path class="d" d="M54.619,184.558a53.01,53.01,0,0,1-21.783-12.2C15.38,156.56,5.848,134.15,2.368,111.182-1.292,87.024-2.24,64.508,11,43.207,22.125,25.321,39.381,11.154,59.407,4.44c35.367-11.858,79.024.642,102.038,30.282,12.172,15.676,17.637,37.155,11.541,56.042-6.3,19.518-22.231,29.192-41.262,32.676-10.967,2.007-24.612,2.774-32.968,11.141-4.376,4.382-5.839,9.776-5.648,15.753.275,8.629.464,19.522-5.3,26.581-5.93,7.267-16.841,9.511-25.708,8.888A40.881,40.881,0,0,1,54.619,184.558Z" transform="translate(9278.174 212.207) rotate(8)"/><g transform="translate(9439.947 268.079)"><g class="e"><ellipse class="f" cx="3.068" cy="3.068" rx="3.068" ry="3.068" transform="translate(49.093)"/><ellipse class="f" cx="3.068" cy="3.068" rx="3.068" ry="3.068" transform="translate(36.82)"/><ellipse class="f" cx="3.068" cy="3.068" rx="3.068" ry="3.068" transform="translate(24.547)"/><ellipse class="f" cx="3.068" cy="3.068" rx="3.068" ry="3.068" transform="translate(12.273)"/><ellipse class="f" cx="3.068" cy="3.068" rx="3.068" ry="3.068"/></g><g class="e" transform="translate(0 12.273)"><ellipse class="f" cx="3.068" cy="3.068" rx="3.068" ry="3.068" transform="translate(49.093)"/><ellipse class="f" cx="3.068" cy="3.068" rx="3.068" ry="3.068" transform="translate(36.82)"/><ellipse class="f" cx="3.068" cy="3.068" rx="3.068" ry="3.068" transform="translate(24.547)"/><ellipse class="f" cx="3.068" cy="3.068" rx="3.068" ry="3.068" transform="translate(12.273)"/><ellipse class="f" cx="3.068" cy="3.068" rx="3.068" ry="3.068"/></g><g class="e" transform="translate(0 24.547)"><ellipse class="f" cx="3.068" cy="3.068" rx="3.068" ry="3.068" transform="translate(49.093)"/><ellipse class="f" cx="3.068" cy="3.068" rx="3.068" ry="3.068" transform="translate(36.82)"/><ellipse class="f" cx="3.068" cy="3.068" rx="3.068" ry="3.068" transform="translate(24.547)"/><ellipse class="f" cx="3.068" cy="3.068" rx="3.068" ry="3.068" transform="translate(12.273)"/><ellipse class="f" cx="3.068" cy="3.068" rx="3.068" ry="3.068"/></g><g class="e" transform="translate(0 36.82)"><ellipse class="f" cx="3.068" cy="3.068" rx="3.068" ry="3.068" transform="translate(49.093)"/><ellipse class="f" cx="3.068" cy="3.068" rx="3.068" ry="3.068" transform="translate(36.82)"/><ellipse class="f" cx="3.068" cy="3.068" rx="3.068" ry="3.068" transform="translate(24.547)"/><ellipse class="f" cx="3.068" cy="3.068" rx="3.068" ry="3.068" transform="translate(12.273)"/><ellipse class="f" cx="3.068" cy="3.068" rx="3.068" ry="3.068"/></g><g class="e" transform="translate(0 49.093)"><ellipse class="f" cx="3.068" cy="3.068" rx="3.068" ry="3.068" transform="translate(49.093)"/><ellipse class="f" cx="3.068" cy="3.068" rx="3.068" ry="3.068" transform="translate(36.82)"/><ellipse class="f" cx="3.068" cy="3.068" rx="3.068" ry="3.068" transform="translate(24.547)"/><ellipse class="f" cx="3.068" cy="3.068" rx="3.068" ry="3.068" transform="translate(12.273)"/><ellipse class="f" cx="3.068" cy="3.068" rx="3.068" ry="3.068"/></g><g class="e" transform="translate(0 61.367)"><ellipse class="f" cx="3.068" cy="3.068" rx="3.068" ry="3.068" transform="translate(49.093)"/><ellipse class="f" cx="3.068" cy="3.068" rx="3.068" ry="3.068" transform="translate(36.82)"/><ellipse class="f" cx="3.068" cy="3.068" rx="3.068" ry="3.068" transform="translate(24.547)"/><ellipse class="f" cx="3.068" cy="3.068" rx="3.068" ry="3.068" transform="translate(12.273)"/><ellipse class="f" cx="3.068" cy="3.068" rx="3.068" ry="3.068"/></g></g><g class="i" transform="matrix(1, 0, 0, 1, 9105, 75)"><path class="g" d="M70.167.857c9.975-2.792,21.445,1.492,29.179,9.2C107.312,17.986,110.8,29.446,118.4,37.76c15.117,16.548,39.6,12.633,57.284,24.987,8.5,5.94,17.965,18.023,15.168,29.09a17.028,17.028,0,0,1-9.256,11.13c-8.078,3.713-17.651.507-25.309-4.011-10.583-6.244-19.771-11.828-32.391-13.152-15.181-1.592-27.2,4.407-41.4,7.8-19.84,4.739-43.169,4.029-61.307-6.124C12.749,82.761,5.5,75.5,2.083,66.458c-2.871-7.595-3.2-18.3,1.724-25.236,4.837-6.817,15.466-8.8,23.1-10.718,5.872-1.477,12.216-2.779,17.4-6.067,6.453-4.1,10.053-11.074,15-16.666A22.445,22.445,0,0,1,70.167.857Z" transform="matrix(1, 0.09, -0.09, 1, 133.51, -5)"/></g><path class="h" d="M395.4-212.675c23.077,30.841,7.039,83.77-22.946,104.137A72.074,72.074,0,0,1,331.2-96.333c-16.3-.23-30.386-7.133-44.432-14.773-12.566-6.836-25.394-11.263-39.824-12.023-10.7-.563-21.471.01-32.1-1.362-17.771-2.3-38.162-13.285-38.081-33.77a28.12,28.12,0,0,1,11.392-22.258c11.669-8.485,22.892-5.6,36.059-7.3,14.4-1.859,27.945-8.052,40.483-15.1,21.526-12.11,42.37-25.768,67.188-30.055,20.117-3.475,42.367.119,57.543,13.774A45.2,45.2,0,0,1,395.4-212.675Z" transform="translate(8886.401 541.759)"/><g transform="translate(9110.845 75.307)"><g class="e"><ellipse class="f" cx="2.241" cy="2.241" rx="2.241" ry="2.241" transform="translate(35.605)"/><ellipse class="f" cx="2.241" cy="2.241" rx="2.241" ry="2.241" transform="translate(26.641)"/><ellipse class="f" cx="2.241" cy="2.241" rx="2.241" ry="2.241" transform="translate(17.927)"/><ellipse class="f" cx="2.241" cy="2.241" rx="2.241" ry="2.241" transform="translate(8.963)"/><ellipse class="f" cx="2.241" cy="2.241" rx="2.241" ry="2.241"/></g><g class="e" transform="translate(0 8.963)"><ellipse class="f" cx="2.241" cy="2.241" rx="2.241" ry="2.241" transform="translate(35.605)"/><ellipse class="f" cx="2.241" cy="2.241" rx="2.241" ry="2.241" transform="translate(26.641)"/><ellipse class="f" cx="2.241" cy="2.241" rx="2.241" ry="2.241" transform="translate(17.927)"/><ellipse class="f" cx="2.241" cy="2.241" rx="2.241" ry="2.241" transform="translate(8.963)"/><ellipse class="f" cx="2.241" cy="2.241" rx="2.241" ry="2.241"/></g><g class="e" transform="translate(0 17.927)"><ellipse class="f" cx="2.241" cy="2.241" rx="2.241" ry="2.241" transform="translate(35.605)"/><ellipse class="f" cx="2.241" cy="2.241" rx="2.241" ry="2.241" transform="translate(26.641)"/><ellipse class="f" cx="2.241" cy="2.241" rx="2.241" ry="2.241" transform="translate(17.927)"/><ellipse class="f" cx="2.241" cy="2.241" rx="2.241" ry="2.241" transform="translate(8.963)"/><ellipse class="f" cx="2.241" cy="2.241" rx="2.241" ry="2.241"/></g><g class="e" transform="translate(0 26.641)"><ellipse class="f" cx="2.241" cy="2.241" rx="2.241" ry="2.241" transform="translate(35.605)"/><ellipse class="f" cx="2.241" cy="2.241" rx="2.241" ry="2.241" transform="translate(26.641)"/><ellipse class="f" cx="2.241" cy="2.241" rx="2.241" ry="2.241" transform="translate(17.927)"/><ellipse class="f" cx="2.241" cy="2.241" rx="2.241" ry="2.241" transform="translate(8.963)"/><ellipse class="f" cx="2.241" cy="2.241" rx="2.241" ry="2.241"/></g><g class="e" transform="translate(0 35.605)"><ellipse class="f" cx="2.241" cy="2.241" rx="2.241" ry="2.241" transform="translate(35.605)"/><ellipse class="f" cx="2.241" cy="2.241" rx="2.241" ry="2.241" transform="translate(26.641)"/><ellipse class="f" cx="2.241" cy="2.241" rx="2.241" ry="2.241" transform="translate(17.927)"/><ellipse class="f" cx="2.241" cy="2.241" rx="2.241" ry="2.241" transform="translate(8.963)"/><ellipse class="f" cx="2.241" cy="2.241" rx="2.241" ry="2.241"/></g><g class="e" transform="translate(0 44.568)"><ellipse class="f" cx="2.241" cy="2.241" rx="2.241" ry="2.241" transform="translate(35.605)"/><ellipse class="f" cx="2.241" cy="2.241" rx="2.241" ry="2.241" transform="translate(26.641)"/><ellipse class="f" cx="2.241" cy="2.241" rx="2.241" ry="2.241" transform="translate(17.927)"/><ellipse class="f" cx="2.241" cy="2.241" rx="2.241" ry="2.241" transform="translate(8.963)"/><ellipse class="f" cx="2.241" cy="2.241" rx="2.241" ry="2.241"/></g></g></g></svg>