<svg id="linkedin" xmlns="http://www.w3.org/2000/svg" width="39.755" height="38" viewBox="0 0 39.755 38">
  <defs>
    <style>
      .cls-1 {
        fill: #fff;
      }
    </style>
  </defs>
  <path id="Path_23974" data-name="Path 23974" class="cls-1" d="M4.821-.668C1.906-.668,0,1.246,0,3.762A4.411,4.411,0,0,0,4.709,8.191h.055c2.972,0,4.822-1.969,4.822-4.429A4.429,4.429,0,0,0,4.821-.668Zm0,0" transform="translate(0 0.668)"/>
  <path id="Path_23975" data-name="Path 23975" class="cls-1" d="M8.109,198.313h8.522v25.639H8.109Zm0,0" transform="translate(-7.606 -185.953)"/>
  <path id="Path_23976" data-name="Path 23976" class="cls-1" d="M237.418,188.625c-4.6,0-7.68,4.32-7.68,4.32v-3.718h-8.522v25.639h8.522V200.548a5.84,5.84,0,0,1,.281-2.08,4.665,4.665,0,0,1,4.372-3.116c3.084,0,4.317,2.351,4.317,5.8v13.716h8.521v-14.7c0-7.875-4.2-11.54-9.811-11.54Zm0,0" transform="translate(-207.474 -176.867)"/>
</svg>
