<svg xmlns="http://www.w3.org/2000/svg" width="31.386" height="30" viewBox="0 0 31.386 30">
  <g id="linkedin" transform="translate(0 0.668)">
    <path id="Path_23974" data-name="Path 23974" d="M3.806-.668a3.507,3.507,0,1,0-.088,6.994h.044A3.508,3.508,0,1,0,3.806-.668Zm0,0" fill="#fff"/>
    <path id="Path_23975" data-name="Path 23975" d="M8.109,198.313h6.728v20.242H8.109Zm0,0" transform="translate(-7.712 -189.223)" fill="#fff"/>
    <path id="Path_23976" data-name="Path 23976" d="M234.007,188.625c-3.63,0-6.063,3.411-6.063,3.411V189.1h-6.728v20.242h6.728v-11.3a4.611,4.611,0,0,1,.222-1.642,3.683,3.683,0,0,1,3.452-2.46c2.435,0,3.408,1.856,3.408,4.577v10.829h6.728V197.736c0-6.217-3.319-9.111-7.746-9.111Zm0,0" transform="translate(-210.367 -180.01)" fill="#fff"/>
  </g>
</svg>
