<svg xmlns="http://www.w3.org/2000/svg" width="188" height="187.416" viewBox="0 0 188 187.416"><defs><style>.a{isolation:isolate;}.b{fill:#248446;}</style></defs><g class="a" transform="translate(0 -0.796)"><g transform="translate(0 0.796)"><path class="b" d="M185.208,142.255h-18.4V119.441a2.792,2.792,0,0,0-5.584,0v63.187H113.309V99.678h47.918v6.732a2.792,2.792,0,0,0,5.584,0V96.887a2.792,2.792,0,0,0-2.792-2.792H125.87V3.588A2.792,2.792,0,0,0,123.078.8H65.007a2.792,2.792,0,0,0-2.792,2.792V45.356H26.1a2.792,2.792,0,0,0-2.792,2.792V116.8H2.792A2.792,2.792,0,0,0,0,119.588v65.832a2.792,2.792,0,0,0,2.792,2.792H185.208A2.792,2.792,0,0,0,188,185.419V145.047A2.792,2.792,0,0,0,185.208,142.255Zm-161.9,40.372H5.584V122.38H23.306Zm58.072,0H28.89v-15.44H81.378Zm0-39.823H56.214a2.792,2.792,0,0,0,0,5.584H81.378V161.6H28.89V148.388H43.184a2.792,2.792,0,0,0,0-5.584H28.89V129.589H81.378Zm0-18.8H28.89V110.79H81.378Zm0-18.8H28.89V91.992H81.378Zm0-18.8H28.89V73.193H81.378Zm0-18.8H28.89V50.94H81.378Zm26.346,29.279v85.741H86.962V48.148a2.792,2.792,0,0,0-2.792-2.792H80.363V39.772a2.792,2.792,0,1,0-5.584,0v5.584H67.8V6.38h52.487V94.1h-9.77A2.792,2.792,0,0,0,107.724,96.887Zm74.691,85.74h-15.6V147.839h15.6Z" transform="translate(0 -0.796)"/></g><g transform="translate(107.724 61.289)"><path class="b" d="M296.169,165.543a2.792,2.792,0,0,0-2.792,2.792v8.376a2.792,2.792,0,1,0,5.584,0v-8.376A2.792,2.792,0,0,0,296.169,165.543Z" transform="translate(-293.377 -165.543)"/></g><g transform="translate(91.252 61.289)"><path class="b" d="M251.308,165.543a2.792,2.792,0,0,0-2.792,2.792v8.376a2.792,2.792,0,1,0,5.584,0v-8.376A2.792,2.792,0,0,0,251.308,165.543Z" transform="translate(-248.516 -165.543)"/></g><g transform="translate(107.724 36.98)"><path class="b" d="M296.169,99.34a2.792,2.792,0,0,0-2.792,2.792v8.376a2.792,2.792,0,0,0,5.584,0v-8.376A2.792,2.792,0,0,0,296.169,99.34Z" transform="translate(-293.377 -99.34)"/></g><g transform="translate(91.252 36.98)"><path class="b" d="M251.308,99.34a2.792,2.792,0,0,0-2.792,2.792v8.376a2.792,2.792,0,0,0,5.584,0v-8.376A2.792,2.792,0,0,0,251.308,99.34Z" transform="translate(-248.516 -99.34)"/></g><g transform="translate(74.779 12.671)"><path class="b" d="M206.446,33.137a2.792,2.792,0,0,0-2.792,2.792v8.376a2.792,2.792,0,1,0,5.584,0V35.929A2.792,2.792,0,0,0,206.446,33.137Z" transform="translate(-203.654 -33.137)"/></g><g transform="translate(107.724 12.671)"><path class="b" d="M296.169,33.137a2.792,2.792,0,0,0-2.792,2.792v8.376a2.792,2.792,0,0,0,5.584,0V35.929A2.792,2.792,0,0,0,296.169,33.137Z" transform="translate(-293.377 -33.137)"/></g><g transform="translate(91.252 12.671)"><path class="b" d="M251.308,33.137a2.792,2.792,0,0,0-2.792,2.792v8.376a2.792,2.792,0,0,0,5.584,0V35.929A2.792,2.792,0,0,0,251.308,33.137Z" transform="translate(-248.516 -33.137)"/></g><g transform="translate(107.729 85.731)"><path class="b" d="M294.685,232.532a2.79,2.79,0,1,0,4.142,3.233A2.81,2.81,0,0,0,294.685,232.532Z" transform="translate(-293.389 -232.109)"/></g><g transform="translate(91.252 85.719)"><path class="b" d="M251.308,232.075a2.792,2.792,0,0,0-2.792,2.792v8.376a2.792,2.792,0,1,0,5.584,0v-8.376A2.792,2.792,0,0,0,251.308,232.075Z" transform="translate(-248.516 -232.075)"/></g><g transform="translate(91.252 159.008)"><path class="b" d="M251.308,431.671a2.792,2.792,0,0,0-2.792,2.792v8.376a2.792,2.792,0,1,0,5.584,0v-8.376A2.792,2.792,0,0,0,251.308,431.671Z" transform="translate(-248.516 -431.671)"/></g><g transform="translate(91.252 134.578)"><path class="b" d="M251.308,365.139a2.792,2.792,0,0,0-2.792,2.792v8.376a2.792,2.792,0,1,0,5.584,0v-8.376A2.792,2.792,0,0,0,251.308,365.139Z" transform="translate(-248.516 -365.139)"/></g><g transform="translate(91.252 110.149)"><path class="b" d="M251.308,298.608a2.792,2.792,0,0,0-2.792,2.792v8.376a2.792,2.792,0,1,0,5.584,0V301.4A2.792,2.792,0,0,0,251.308,298.608Z" transform="translate(-248.516 -298.608)"/></g><g transform="translate(119.031 158.158)"><path class="b" d="M357.851,429.355H326.962a2.792,2.792,0,1,0,0,5.584h30.889a2.792,2.792,0,0,0,0-5.584Z" transform="translate(-324.17 -429.355)"/></g><g transform="translate(119.031 171.356)"><path class="b" d="M357.851,465.3H326.962a2.792,2.792,0,1,0,0,5.584h30.889a2.792,2.792,0,0,0,0-5.584Z" transform="translate(-324.17 -465.299)"/></g><g transform="translate(119.031 144.96)"><path class="b" d="M357.851,393.413H326.962a2.792,2.792,0,1,0,0,5.584h30.889a2.792,2.792,0,0,0,0-5.584Z" transform="translate(-324.17 -393.413)"/></g><g transform="translate(119.031 105.366)"><path class="b" d="M357.851,285.583H326.962a2.792,2.792,0,1,0,0,5.584h30.889a2.792,2.792,0,0,0,0-5.584Z" transform="translate(-324.17 -285.583)"/></g><g transform="translate(119.031 131.762)"><path class="b" d="M357.851,357.469H326.962a2.792,2.792,0,1,0,0,5.584h30.889a2.792,2.792,0,1,0,0-5.584Z" transform="translate(-324.17 -357.469)"/></g><g transform="translate(119.031 118.564)"><path class="b" d="M357.851,321.527H326.962a2.792,2.792,0,1,0,0,5.584h30.889a2.792,2.792,0,0,0,0-5.584Z" transform="translate(-324.17 -321.527)"/></g><g transform="translate(11.653 126.818)"><path class="b" d="M34.527,344a2.792,2.792,0,0,0-2.792,2.792v7.259a2.792,2.792,0,0,0,5.584,0V346.8A2.792,2.792,0,0,0,34.527,344Z" transform="translate(-31.735 -344.004)"/></g><g transform="translate(11.653 146.082)"><path class="b" d="M34.527,396.469a2.792,2.792,0,0,0-2.792,2.792v7.259a2.792,2.792,0,1,0,5.584,0v-7.259A2.792,2.792,0,0,0,34.527,396.469Z" transform="translate(-31.735 -396.469)"/></g><g transform="translate(11.653 165.347)"><path class="b" d="M34.527,448.934a2.792,2.792,0,0,0-2.792,2.792v7.259a2.792,2.792,0,0,0,5.584,0v-7.259A2.792,2.792,0,0,0,34.527,448.934Z" transform="translate(-31.735 -448.934)"/></g><g transform="translate(171.822 154.539)"><path class="b" d="M470.732,419.5a2.792,2.792,0,0,0-2.792,2.792v7.9a2.792,2.792,0,0,0,5.584,0v-7.9A2.792,2.792,0,0,0,470.732,419.5Z" transform="translate(-467.94 -419.501)"/></g><g transform="translate(129.575 54.588)"><path class="b" d="M389.737,147.293H355.676a2.792,2.792,0,0,0,0,5.584h34.061a2.792,2.792,0,1,0,0-5.584Z" transform="translate(-352.884 -147.293)"/></g><g transform="translate(149.676 66.314)"><path class="b" d="M434.99,179.228H410.421a2.792,2.792,0,0,0,0,5.584H434.99a2.792,2.792,0,1,0,0-5.584Z" transform="translate(-407.629 -179.228)"/></g><g transform="translate(22.922 21.643)"><path class="b" d="M89.786,57.571H65.217a2.792,2.792,0,1,0,0,5.584H89.786a2.792,2.792,0,1,0,0-5.584Z" transform="translate(-62.425 -57.571)"/></g><g transform="translate(8.962 30.949)"><path class="b" d="M51.769,82.916H27.2a2.792,2.792,0,1,0,0,5.584H51.769a2.792,2.792,0,1,0,0-5.584Z" transform="translate(-24.408 -82.916)"/></g></g></svg>